<svg width="26" height="25" viewBox="0 0 26 25" fill="none" xmlns="http://www.w3.org/2000/svg">
<path d="M26 13.0859C26 13.96 25.7816 14.7705 25.3449 15.5127C24.9082 16.2549 24.3242 16.8359 23.5879 17.2412C23.6082 17.373 23.6184 17.5781 23.6184 17.8564C23.6184 19.1797 23.1562 20.3027 22.2422 21.2305C21.323 22.1631 20.216 22.627 18.9211 22.627C18.3422 22.627 17.7887 22.5244 17.2656 22.3193C16.8594 23.1201 16.2754 23.7646 15.5086 24.2578C14.7469 24.7559 13.909 25 13 25C12.0707 25 11.2277 24.7607 10.4762 24.2725C9.71953 23.7891 9.14062 23.1396 8.73438 22.3193C8.21133 22.5244 7.66289 22.627 7.07891 22.627C5.78398 22.627 4.67187 22.1631 3.74258 21.2305C2.81328 20.3027 2.35117 19.1748 2.35117 17.8564C2.35117 17.71 2.37148 17.5049 2.40703 17.2412C1.6707 16.8311 1.08672 16.2549 0.65 15.5127C0.218359 14.7705 0 13.96 0 13.0859C0 12.1582 0.24375 11.3037 0.726172 10.5322C1.20859 9.76074 1.85859 9.18945 2.67109 8.81836C2.45781 8.26172 2.35117 7.7002 2.35117 7.14355C2.35117 5.8252 2.81328 4.69727 3.74258 3.76953C4.67187 2.8418 5.78398 2.37305 7.07891 2.37305C7.65781 2.37305 8.21133 2.47559 8.73438 2.68066C9.14062 1.87988 9.72461 1.23535 10.4914 0.742187C11.2531 0.249023 12.091 0 13 0C13.909 0 14.7469 0.249023 15.5086 0.737305C16.2703 1.23047 16.8594 1.875 17.2656 2.67578C17.7887 2.4707 18.3371 2.36816 18.9211 2.36816C20.216 2.36816 21.323 2.83203 22.2422 3.76465C23.1613 4.69727 23.6184 5.82031 23.6184 7.13867C23.6184 7.75391 23.5219 8.31055 23.3289 8.81348C24.1414 9.18457 24.7914 9.75586 25.2738 10.5273C25.7563 11.3037 26 12.1582 26 13.0859ZM12.4465 16.8506L17.8141 9.12109C17.9512 8.91602 17.9918 8.69141 17.9461 8.45215C17.8953 8.21289 17.7684 8.02246 17.5551 7.89551C17.3418 7.76367 17.1082 7.71973 16.8594 7.75391C16.6055 7.79297 16.4023 7.91016 16.25 8.11523L11.5223 14.9512L9.34375 12.8613C9.15078 12.6758 8.92734 12.5879 8.67852 12.5977C8.42461 12.6074 8.20625 12.6953 8.01328 12.8613C7.84063 13.0273 7.7543 13.2373 7.7543 13.4912C7.7543 13.7402 7.84063 13.9502 8.01328 14.1211L11.0043 16.9971L11.1516 17.1094C11.3242 17.2217 11.502 17.2754 11.6746 17.2754C12.0148 17.2705 12.2738 17.1338 12.4465 16.8506Z" fill="#3897F0"/>
</svg>
